<mxfile host="app.diagrams.net" modified="2023-12-06T15:18:39.038Z" agent="Mozilla/5.0 (Windows NT 10.0; Win64; x64) AppleWebKit/537.36 (KHTML, like Gecko) Chrome/119.0.0.0 Safari/537.36" version="22.1.5" etag="lDnil8JfiF0gm1a7NlOS" type="github">
  <diagram name="페이지-1" id="z1m0-xuvkjOIDxLYhDB4">
    <mxGraphModel>
      <root>
        <mxCell id="0" />
        <mxCell id="1" parent="0" />
      </root>
    </mxGraphModel>
  </diagram>
</mxfile>
